# xmcd
#
# Track frame offsets:
#	183
#	13848
#	26730
#	39938
#	53728
#	66250
#	78163
#	91383
#	105148
#	119538
#	130255
#	142775
#	155993
#	168050
#
# Disc length: 2374 seconds
# Revision: 3
# Processed by: cddbd v1.5.2PL0 Copyright (c) Steve Scherf et al.
# Submitted via: dBpowerAMP V12.0
#
DISCID=ab09440e
DTITLE=Albert King and Otis Rush - So Many Roads
DYEAR=1996
DGENRE=Blues
TTITLE0=Bad Luck (Blues)
TTITLE1=(Be on Your) Merry Way
TTITLE2=Murder
TTITLE3=Searching For A Woman
TTITLE4=California Blues
TTITLE5=Wild Women
TTITLE6=Won't Be Hangin' Around No More
TTITLE7=Howlin' For My Darling
TTITLE8=So Many Roads, So Many Trains
TTITLE9=I'm Satisfied
TTITLE10=So Close
TTITLE11=All Your Love
TTITLE12=You Know My Love
TTITLE13=I Can't Stop Baby
EXTD=
EXTT0=
EXTT1=
EXTT2=
EXTT3=
EXTT4=
EXTT5=
EXTT6=
EXTT7=
EXTT8=
EXTT9=
EXTT10=
EXTT11=
EXTT12=
EXTT13=
PLAYORDER=
